inDegrees=yes
name=ik_S55_A01_T02
DataType=double
version=3
OpenSimVersion=4.3-2021-08-27-4bc7ad9
endheader
time	pelvis_tilt	pelvis_list	pelvis_rotation	pelvis_tx	pelvis_ty	pelvis_tz	hip_flexion_r	hip_adduction_r	hip_rotation_r	knee_angle_r	knee_angle_r_beta	ankle_angle_r	subtalar_angle_r	mtp_angle_r	hip_flexion_l	hip_adduction_l	hip_rotation_l	knee_angle_l	knee_angle_l_beta	ankle_angle_l	subtalar_angle_l	mtp_angle_l	lumbar_extension	lumbar_bending	lumbar_rotation	arm_flex_r	arm_add_r	arm_rot_r	elbow_flex_r	pro_sup_r	wrist_flex_r	wrist_dev_r	arm_flex_l	arm_add_l	arm_rot_l	elbow_flex_l	pro_sup_l	wrist_flex_l	wrist_dev_l
22.33999999999961	-1.25408659837076	6.562916183892356	67.65764448424615	0	0.9399999999999999	0	4.514989517259715	-1.167978212132995	-2.310807095771505	10.07390018115691	0.1758227266784413	0	0	0	9.601314404638646	-4.731759465844736	-5.0724289297484	28.40870220862457	0.4958253897590838	0	0	0	0	0	0	40.23687795931842	-40.23687795931843	4.89761916686182	83.55327825023376	85.1023811032865	0	0	40.23687795931842	-40.23687795931843	4.89761916686182	83.55327825023376	85.10238110326785	0	0
22.35999999999961	-1.472349203846332	6.449617801199108	68.98418343317041	0	0.9399999999999999	0	4.410649436147565	-1.297235163933859	-2.752956943273368	9.708764119001785	0.1694499001760677	0	0	0	8.057783486120334	-5.243747991570388	-6.041092710653054	28.01664174930805	0.4889826438771293	0	0	0	0	0	0	40.24639630919879	-40.2463963091988	4.897975933855228	83.5583202994579	85.10202433630862	0	0	40.24639630919879	-40.2463963091988	4.897975933855228	83.5583202994579	85.10202433628999	0	0
22.37999999999961	-1.676069148669117	6.196996093286864	70.38591767069428	0	0.9399999999999999	0	4.475505830292436	-1.422260849721219	-3.448757925112511	9.428046855481124	0.1645504596604436	0	0	0	7.48748281104684	-5.134442303678301	-6.020439504116028	27.23064864147837	0.4752644762475185	0	0	0	0	0	0	40.24727644776431	-40.24727644776432	4.898013950165014	83.55885762256671	85.10198632000051	0	0	40.24727644776431	-40.24727644776432	4.898013950165014	83.55885762256671	85.1019863199819	0	0
22.39999999999961	-1.789497737139027	5.852294348893909	71.7464656483704	0	0.9399999999999999	0	4.788810359380982	-1.526286281760191	-4.782638021786392	9.420178988360199	0.164413139474074	0	0	0	6.974660719073575	-5.166594046965914	-6.373443145291158	27.04559896501301	0.4720347501134476	0	0	0	0	0	0	40.24839898530894	-40.24839898530895	4.898062306012346	83.55954108333546	85.10193796415534	0	0	40.24839898530894	-40.24839898530895	4.898062306012346	83.55954108333546	85.10193796413672	0	0
22.41999999999961	-1.839719891462255	5.543025618207327	73.12175056747323	0	0.9399999999999999	0	5.071230911437948	-1.590747989015824	-6.104747658975701	9.469216957023129	0.165269013485732	0	0	0	6.33169466487568	-5.115954105343437	-6.859784915395419	26.17227129395841	0.456792306804771	0	0	0	0	0	0	40.25997794710153	-40.25997794710154	4.898492618640047	83.56562248324391	85.10150765154633	0	0	40.25997794710153	-40.25997794710154	4.898492618640047	83.56562248324391	85.10150765152781	0	0
22.43999999999961	-1.845181714190259	5.291486176097339	74.54202342279866	0	0.9399999999999999	0	5.293378992769322	-1.691281956948182	-7.413450757147958	9.635978861653211	0.1681795577884237	0	0	0	5.451249688208448	-5.112534872715676	-7.855698279962307	23.97332633800748	0.4184134772533056	0	0	0	0	0	0	40.27035243124282	-40.27035243124283	4.898882725432587	83.57113572011914	85.10111754477072	0	0	40.27035243124282	-40.27035243124283	4.898882725432587	83.57113572011914	85.10111754475233	0	0
22.45999999999961	-1.804865394119298	5.09245543731804	75.98609434629145	0	0.9399999999999999	0	5.432599754849801	-1.748606039648012	-8.839311054621998	9.661010405004802	0.1686164406367646	0	0	0	4.648620950970494	-4.891594566680785	-8.513353148575648	22.17372345810719	0.3870044817706733	0	0	0	0	0	0	40.28004183453089	-40.2800418345309	4.899247163276585	83.57628618648083	85.10075310694253	0	0	40.28004183453089	-40.2800418345309	4.899247163276585	83.57628618648083	85.10075310692423	0	0
22.47999999999961	-1.676838454375744	4.992279615420816	77.35907680030252	0	0.9399999999999999	0	5.462679846633482	-1.759929883010667	-10.17251210111272	9.729650411180456	0.1698144347431191	0	0	0	3.717570709923717	-4.608283384312681	-9.366970883280686	20.05041239919902	0.3499457127487185	0	0	0	0	0	0	40.2883790085923	-40.28837900859231	4.899563023251277	83.58075014163973	85.1004372469816	0	0	40.2883790085923	-40.28837900859231	4.899563023251277	83.58075014163973	85.10043724696335	0	0
